<?xml version="1.0" encoding="UTF-8"?>
<svg width="179px" height="23px" viewBox="0 0 179 23" version="1.1" xmlns="http://www.w3.org/2000/svg" xmlns:xlink="http://www.w3.org/1999/xlink">
    <defs>
        <polygon id="path-1" points="0 23 185 23 185 0 0 0"></polygon>
    </defs>
    <g id="Homepage" stroke="none" stroke-width="1" fill="none" fill-rule="evenodd">
        <g id="CodeFirst-v2---Homepage" transform="translate(-200.000000, -5989.000000)">
            <g id="footer" transform="translate(0.000000, 5912.000000)">
                <g id="logo" transform="translate(200.000000, 77.000000)">
                    <path d="M59,15.626803 C58.6728098,16.220299 58.2803346,16.7810123 57.8205342,17.3089431 C57.3597137,17.8376606 56.8351383,18.3026488 56.2434927,18.7028586 C55.6505721,19.1041175 54.9933865,19.4193548 54.2686207,19.6514555 C53.544875,19.883294 52.7545691,20 51.8971931,20 C50.8064741,20 49.7833353,19.7991083 48.8252265,19.3996853 C47.8666077,18.9994755 47.0298883,18.4146341 46.3135381,17.6454236 C45.5964229,16.876213 45.0318094,15.9354839 44.6199527,14.822974 C44.2065659,13.7091529 44,12.4303698 44,10.9881983 C44,9.73878836 44.1991703,8.56517178 44.5954709,7.46682402 C44.9933015,6.36926305 45.5426138,5.41673223 46.2431527,4.60765801 C46.9439467,3.79832153 47.7857665,3.16155258 48.765807,2.69682665 C49.7476326,2.23288749 50.8230504,2 51.9910403,2 C52.7545691,2 53.4897907,2.10831366 54.1995104,2.32441647 C54.9076999,2.5410438 55.5659056,2.84552846 56.1728523,3.23787044 C56.7800541,3.63073695 57.3214608,4.09388933 57.7975824,4.63152373 C58.272174,5.16837136 58.6572536,5.75688434 58.9535864,6.39732494 L55.6444516,8.07972725 C55.5506044,7.7571466 55.3927472,7.4369263 55.1721553,7.12168896 C54.9515633,6.80645161 54.6871079,6.52661946 54.3777691,6.28429058 C54.0671552,6.04196171 53.7233887,5.84395489 53.3446845,5.69053239 C52.9662354,5.53658537 52.5671297,5.46000525 52.1499175,5.46000525 C51.4838063,5.46000525 50.9000663,5.60792027 50.3971676,5.90637293 C49.8952889,6.20298977 49.4732314,6.60031471 49.1330352,7.09782324 C48.7930941,7.59611854 48.5378194,8.1694204 48.3669563,8.82061369 C48.1976232,9.47128245 48.1129567,10.1497509 48.1129567,10.8557566 C48.1129567,11.7878311 48.22032,12.6029373 48.4388718,13.3018621 C48.6569136,14.0007868 48.9496761,14.5819565 49.3151193,15.0485182 C49.6810724,15.5127196 50.1097605,15.8625754 50.6009283,16.0946761 C51.091331,16.3270391 51.6174365,16.4437451 52.1782247,16.4437451 C52.7237117,16.4437451 53.1852973,16.3603462 53.5678267,16.1922371 C53.9488261,16.0238657 54.2800966,15.8111723 54.5611282,15.5552059 C54.8408847,15.2992394 55.0744827,15.0230789 55.2619222,14.7261998 C55.4491066,14.4298453 55.6123191,14.1618148 55.7520699,13.9215841 L59,15.626803 Z" id="Fill-1" fill="#FFFFFF"></path>
                    <path d="M64.4768936,12.9125639 C64.6366982,13.569012 64.8882327,14.1535996 65.2307086,14.6660644 C65.5747615,15.1793161 66.0136984,15.5950053 66.548045,15.9152303 C67.0823915,16.236242 67.7344888,16.3956989 68.5003943,16.3956989 C69.2818071,16.3956989 69.9444178,16.2323081 70.4866495,15.9036906 C71.0301953,15.5755977 71.4691322,15.1502047 71.8039858,14.6301342 C72.139628,14.1095391 72.3830146,13.5367535 72.5338827,12.9125639 C72.6858022,12.2868008 72.7614991,11.6788717 72.7614991,11.0837935 C72.7614991,10.3161453 72.6781799,9.59360657 72.5112788,8.9216849 C72.3422749,8.24792738 72.080227,7.66333979 71.7204038,7.16661081 C71.3608436,6.6701441 70.9098162,6.2770096 70.3673217,5.9895677 C69.8240387,5.70028995 69.179038,5.55551994 68.4289027,5.55551994 C67.6301427,5.55551994 66.9633266,5.72782772 66.4292429,6.07244329 C65.8935822,6.41679658 65.4638445,6.85058208 65.1358246,7.37117713 C64.8091189,7.89150992 64.5762458,8.46403334 64.4411478,9.08927192 C64.3052614,9.71346145 64.2374496,10.3240132 64.2374496,10.9164688 C64.2374496,11.589964 64.3181404,12.2548045 64.4768936,12.9125639 M60,10.9164688 C60,9.95579386 60.1479769,8.94974721 60.4441936,7.89964011 C60.7404103,6.85058208 61.2219267,5.88912039 61.8871658,5.01551732 C62.5526678,4.1429633 63.4176626,3.42226043 64.4834645,2.85262192 C65.5495292,2.28429473 66.8524096,2 68.3921056,2 C69.929699,2 71.2457212,2.28429473 72.3343898,2.85262192 C73.425424,3.42226043 74.314337,4.1510935 75.0045455,5.03912112 C75.6937027,5.92872233 76.1988744,6.91352556 76.5184836,7.99536666 C76.8401954,9.07825682 77,10.1231186 77,11.1330992 C77,12.2713272 76.8112834,13.3725759 76.4354273,14.4373698 C76.0585198,15.5037373 75.5044605,16.4486763 74.7758778,17.2734982 C74.0457181,18.0983201 73.1489201,18.7594889 72.0831182,19.2556933 C71.0170534,19.7518978 69.802749,20 68.4391534,20 C67.0453316,20 65.8181481,19.7477015 64.7612826,19.2438914 C63.7033659,18.7382455 62.8210238,18.066586 62.1163593,17.224717 C61.4098548,16.3841592 60.8805022,15.4195504 60.528827,14.3301036 C60.1758376,13.2403946 60,12.1021666 60,10.9164688" id="Fill-3" fill="#FFFFFF"></path>
                    <path d="M83.1842665,15.5330469 L84.548752,15.5330469 C85.4586685,15.5330469 86.2445644,15.4458081 86.9066992,15.2700167 C87.5696124,15.0939625 88.1155104,14.8112248 88.5464688,14.4191758 C88.9784651,14.0284407 89.297338,13.5047453 89.5046443,12.8507172 C89.7122101,12.1953753 89.815474,11.3884166 89.815474,10.4293156 C89.815474,9.77371089 89.7526854,9.15147768 89.624773,8.55972549 C89.4968606,7.96718499 89.2646464,7.45294918 88.930206,7.01386484 C88.5947278,6.57346667 88.1326345,6.22687647 87.5413315,5.97067825 C86.9510664,5.71500556 86.1924135,5.58624954 85.2666701,5.58624954 L83.1842665,5.58624954 L83.1842665,15.5330469 Z M79,2 L84.7446422,2 C86.3569093,2 87.7501946,2.18025844 88.9195683,2.54208916 C90.0907581,2.90234327 91.0530849,3.44075368 91.8036947,4.15469272 C92.5558611,4.87020836 93.1095428,5.75599728 93.4657776,6.81573822 C93.8222718,7.87442809 94,9.10365401 94,10.5010511 C94,11.51218 93.8731254,12.5238345 93.6198952,13.5354891 C93.3664055,14.5463553 92.9240309,15.4571071 92.2909553,16.267219 C91.6576203,17.078382 90.7998547,17.7360888 89.7163614,18.2411277 C88.6313113,18.7474805 87.2590421,19 85.5985159,19 L79,19 L79,2 Z" id="Fill-5" fill="#FFFFFF"></path>
                    <polygon id="Fill-7" fill="#FFFFFF" points="97 2 109 2 109 5.29851923 101.047618 5.29851923 101.047618 8.38051812 108.470511 8.38051812 108.470511 11.6080901 101.047618 11.6080901 101.047618 15.6533943 108.97389 15.6533943 108.97389 19 97 19"></polygon>
                    <mask id="mask-2" fill="white">
                        <use xlink:href="#path-1"></use>
                    </mask>
                    <g id="Clip-12"></g>
                    <polygon id="Fill-9" fill="#FFFFFF" mask="url(#mask-2)" points="126 2 126 5.27460739 117.22049 5.27460739 117.22049 8.83878447 125.303829 8.83878447 125.303829 12.1391431 117.22049 12.1391431 117.22049 19 113 19 113 2"></polygon>
                    <polygon id="Fill-11" fill="#FFFFFF" mask="url(#mask-2)" points="128 19 133 19 133 2 128 2"></polygon>
                    <path d="M139.212739,9.77884601 L142.756201,9.77884601 C143.371085,9.77884601 143.847488,9.68241186 144.18725,9.48901804 C144.527538,9.29641251 144.7819,9.06754564 144.951387,8.80215466 C145.121137,8.53781474 145.226508,8.27347481 145.267238,8.00808384 C145.307967,7.74269286 145.327938,7.54640864 145.327938,7.41765461 C145.327938,6.85665487 145.231501,6.42256983 145.037051,6.11671329 C144.842863,5.81269611 144.608734,5.58645687 144.333876,5.44246256 C144.057967,5.29846824 143.779168,5.21385845 143.496164,5.19020975 C143.212634,5.16629828 142.974301,5.15342288 142.780114,5.15342288 L139.212739,5.15342288 L139.212739,9.77884601 Z M143.042096,2 C143.667227,2 144.360153,2.06069833 145.123765,2.18051842 C145.885537,2.30138955 146.596332,2.55364236 147.254047,2.93964171 C147.911499,3.32485278 148.461741,3.87823238 148.903721,4.60030604 C149.345176,5.32211695 149.56564,6.29381579 149.56564,7.51382599 C149.56564,8.23721347 149.468152,8.85943707 149.274753,9.38075954 C149.080828,9.90339583 148.822787,10.3432617 148.500368,10.7050868 C148.177423,11.0666491 147.807442,11.3677759 147.386483,11.6082044 C146.967889,11.8494211 146.52407,12.0499096 146.056864,12.2112463 L150,19 L145.327938,19 L141.906927,12.9338455 L139.237965,12.9338455 L139.237965,19 L135,19 L135,2 L143.042096,2 Z" id="Fill-13" fill="#FFFFFF" mask="url(#mask-2)"></path>
                    <path d="M161.785169,7.52881066 C161.195339,6.8789096 160.549322,6.35898875 159.847119,5.96984554 C159.145424,5.58070232 158.350932,5.38533329 157.463644,5.38533329 C157.041102,5.38533329 156.675508,5.44221625 156.362288,5.55571635 C156.050847,5.66948226 155.799153,5.81594259 155.604153,5.99376827 C155.407373,6.17239139 155.260424,6.37121592 155.158475,6.59050769 C155.057797,6.80953365 155.007203,7.01712986 155.007203,7.2127647 C155.007203,7.68404265 155.182373,8.03650433 155.532458,8.27174459 C155.882542,8.50831389 156.408051,8.68294988 157.107712,8.79618418 L158.929576,9.06332142 C160.002966,9.22599604 160.924576,9.43731357 161.695169,9.69594495 C162.465508,9.95750022 163.096017,10.2825837 163.587203,10.6717269 C164.077373,11.0611359 164.434322,11.5332113 164.660593,12.0850291 C164.885593,12.638176 165,13.2787737 165,14.0092147 C165,14.9185446 164.831949,15.7422842 164.497373,16.4817626 C164.163305,17.2204436 163.673136,17.84908 163.027627,18.3679376 C162.383136,18.8883901 161.597034,19.2905579 160.671864,19.5747069 C159.747203,19.8580584 158.694153,20 157.510932,20 C156.546102,20 155.691356,19.9152072 154.944661,19.7442925 C154.197712,19.5747069 153.529322,19.3344163 152.936949,19.0263445 C152.34661,18.7177412 151.813729,18.348002 151.340593,17.9187218 C150.865932,17.4881125 150.419492,17.0210875 150,16.5173809 L153.120254,14.4477982 C153.663051,15.1460764 154.370085,15.6822115 155.240085,16.0546088 C156.109576,16.428601 156.987458,16.6144009 157.872712,16.6144009 C158.182119,16.6144009 158.512373,16.5785168 158.861441,16.5059512 C159.211017,16.4328539 159.537203,16.3148351 159.839237,16.1532237 C160.143559,15.9908148 160.394237,15.7840161 160.597881,15.5317641 C160.798475,15.2795121 160.899915,14.9756933 160.899915,14.6184471 C160.899915,14.3101096 160.818814,14.0546679 160.654576,13.8510588 C160.492627,13.6479813 160.279068,13.4818512 160.013898,13.3524026 C159.750763,13.2226882 159.447966,13.1208837 159.10678,13.0472548 C158.764068,12.974955 158.407119,12.9138191 158.035169,12.8646446 L156.14822,12.5959125 C155.433305,12.4983608 154.757288,12.3322307 154.121186,12.0972563 C153.484831,11.8617502 152.926017,11.5491598 152.444492,11.1586875 C151.962712,10.7695443 151.586441,10.2910895 151.315678,9.72172834 C151.043644,9.15289879 150.90661,8.49502348 150.90661,7.74783662 C150.90661,6.90309814 151.054576,6.12773561 151.351017,5.42228063 C151.644915,4.71523081 152.077373,4.11158038 152.645085,3.60760802 C153.213559,3.10416728 153.908898,2.71023952 154.733644,2.42662217 C155.557881,2.14220739 156.498814,2 157.557966,2 C158.427966,2 159.220424,2.09356449 159.93661,2.28016185 C160.651525,2.46675921 161.30161,2.71475826 161.884576,3.02336159 C162.468559,3.3314333 163.000169,3.68017366 163.483983,4.06984849 C163.965,4.45978913 164.408898,4.85850143 164.813644,5.26359314 L161.785169,7.52881066 Z" id="Fill-14" fill="#FFFFFF" mask="url(#mask-2)"></path>
                    <polygon id="Fill-15" fill="#FFFFFF" mask="url(#mask-2)" points="174.602684 5.34660566 174.602684 19 170.397316 19 170.397316 5.34660566 166 5.34660566 166 2 179 2 179 5.34660566"></polygon>
                    <polygon id="Fill-16" fill="#FFFFFF" mask="url(#mask-2)" points="18 23 0 14.999582 0 7 18 15.000418"></polygon>
                    <polygon id="Fill-17" fill="#FFFFFF" mask="url(#mask-2)" points="18 -1 0 7.00027868 0 15 18 7"></polygon>
                    <polygon id="Fill-18" fill="#FFFFFF" mask="url(#mask-2)" points="20 -1 38 7.00055737 38 15 20 7.00027869"></polygon>
                    <polygon id="Fill-19" fill="#FFFFFF" mask="url(#mask-2)" points="20 23 38 14.999582 38 7 20 14.999582"></polygon>
                </g>
            </g>
        </g>
    </g>
</svg>